<svg width="74" height="39" viewBox="0 0 74 39" fill="none" xmlns="http://www.w3.org/2000/svg">
<path d="M2.00049 11.1982C2.27109 10.3243 3.60693 8.05914 7.05636 5.41946C9.80535 3.31581 11.6325 2.06641 12.4771 2.00331C15.4313 1.78261 22.3197 12.7523 27.5428 15.941C29.6313 17.2161 32.4581 10.2827 40.1308 4.32716C41.3383 3.38991 41.6379 4.18573 41.8181 4.82341C42.8183 8.36281 48.4331 13.6895 51.5651 15.483C55.8999 12.1309 63.6087 7.11596 66.6305 5.45998C67.1257 5.16748 67.6334 4.83729 68.2477 4.4784" stroke="black" stroke-width="4" stroke-linecap="round"/>
<path d="M4.83008 30.5708C5.08903 29.9085 6.64648 27.4753 8.80694 24.9012C9.66735 23.8761 10.6454 23.122 11.5403 22.6385C18.7936 18.7202 28.9536 36.4482 29.8494 36.7614C31.7687 37.4322 34.1288 31.3833 41.3048 23.8801C42.5921 22.5341 43.2832 22.8845 43.6901 23.2055C47.1417 25.9286 51.9414 31.4272 54.1073 32.8911C54.9775 33.4792 55.6519 33.2959 56.1064 33.0204C56.8438 32.2662 58.9857 30.0581 62.9987 26.6531C65.1614 24.9627 67.5803 23.3487 71.3243 21.1689" stroke="black" stroke-width="4" stroke-linecap="round"/>
</svg>
