<svg width="79" height="58" viewBox="0 0 79 58" fill="none" xmlns="http://www.w3.org/2000/svg">
<path d="M2 25.1163C2.01742 24.1453 2.67099 21.2441 7.26557 15.4637C11.1551 10.5704 16.8895 8.5316 19.8056 7.78025C25.0451 6.43027 27.2505 8.35028 28.5719 9.36684C29.2149 9.86151 29.7446 10.8591 30.9667 13.7577C31.9261 16.0333 33.272 20.0643 34.7963 25.5849C36.3207 31.1054 37.9055 38.0245 38.9464 43.0559C40.5881 50.9916 40.9273 54.7933 40.9706 55.2076C41.0054 55.5404 40.9853 53.4331 40.6983 47.3733C40.4113 41.3136 39.8373 30.6778 39.574 24.9531C39.2883 18.7404 39.6325 17.5867 40.4126 15.6946C41.731 12.4969 43.6435 10.0057 45.2495 8.44949C49.767 4.07195 54.9149 2.61442 57.7746 2.18203C62.4877 1.46938 64.6308 2.94664 67.6283 4.90746C68.7756 5.83682 70.2145 7.37571 72.4185 10.5432C73.6733 12.6002 75.2049 15.5701 76.8195 18.6707" stroke="black" stroke-width="4" stroke-linecap="round"/>
</svg>
