<svg width="72" height="60" viewBox="0 0 72 60" fill="none" xmlns="http://www.w3.org/2000/svg">
<path d="M8.8384 15.461C8.38417 15.461 6.40895 16.0077 4.9718 17.0666C3.52435 18.133 2.76962 20.718 2.2227 23.0742C1.4644 26.341 2.76659 27.9113 3.34857 29.4488C4.11691 31.4786 5.90769 33.2735 8.04946 34.5715C10.2925 35.9309 13.3966 34.9192 15.5338 33.7785C17.9542 32.4867 19.1402 30.6603 20.7454 27.7024C23.5043 22.6189 22.9371 21.0808 22.8009 20.2316C22.5637 18.7535 20.4342 18.2596 19.0756 17.4718C17.3656 16.4572 15.5387 15.691 14.6515 15.4028C14.1837 15.2379 13.6803 15.0351 12.5363 14.7328" stroke="black" stroke-width="4" stroke-linecap="round"/>
<path d="M61.6273 31.2828C59.5946 31.2931 54.3867 31.8606 52.4945 32.9103C50.7493 33.8783 50.0391 36.4625 49.4943 40.2232C49.1672 42.4813 49.5552 44.0883 49.9948 44.9213C51.1115 47.0374 52.8757 47.9016 54.5717 48.7252C58.0259 50.4025 61.13 49.3345 62.8227 48.7113C65.0915 47.8759 66.7893 45.3427 67.8496 43.4506C69.9968 39.6192 68.7887 35.0783 68.0946 33.6922C67.6171 33.0056 67.1117 32.3685 66.5966 31.8425C66.3214 31.5966 66.0181 31.3934 65.6055 31.1366" stroke="black" stroke-width="4" stroke-linecap="round"/>
<path d="M65.113 47.3834C64.5462 47.5973 59.9781 50.3384 54.4947 52.9889C50.4615 54.9384 44.9096 56.1144 40.424 57.0642C38.454 57.4814 34.551 57.5507 28.863 57.5618C24.6919 57.5699 20.8125 55.5313 15.5057 53.3503C14.1119 52.824 12.1371 52.0346 9.51845 50.8578C8.44843 50.3466 7.90393 50.0098 7.06274 49.5166" stroke="black" stroke-width="4" stroke-linecap="round"/>
<path d="M5.44385 15.6112C5.5381 15.1199 7.29907 12.4271 10.9144 9.52785C15.464 5.87926 18.1034 5.72782 22.2531 4.98665C25.0144 4.49346 30.0631 3.84577 33.2688 3.3495C37.7062 2.66255 42.7731 2.19716 48.7302 2.00476C51.9965 1.89926 55.7223 3.52693 58.226 4.63745C59.8933 5.7395 61.6525 6.84703 62.3371 7.17047C62.6799 7.32864 63.0136 7.4747 63.6782 7.83635" stroke="black" stroke-width="4" stroke-linecap="round"/>
</svg>
