<svg width="59" height="48" viewBox="0 0 59 48" fill="none" xmlns="http://www.w3.org/2000/svg">
<path d="M2 3.49091C2.51379 3.09976 5.03394 1.95273 10.7304 2.00151C11.813 2.01078 11.8447 2.90168 11.8828 3.50403C12.04 5.98943 12.38 8.8577 14.5896 19.7472C15.1825 22.6691 15.4134 23.8282 15.554 23.6162C18.636 18.9716 17.7332 12.391 20.5782 6.48616C21.2978 4.99262 22.7381 4.30333 24.0015 3.48661C25.0225 2.8266 26.3333 2.80108 27.6047 2.96093C29.9487 3.25564 30.9835 6.50944 32.5934 9.64824C34.9192 14.183 34.2173 17.1572 35.3568 25.2117C36.1585 30.8789 39.1295 34.9534 41.2821 37.1827C42.9814 38.9426 48.0364 39.0783 51.4471 38.2936C54.1524 37.6712 54.9386 34.7329 56.1567 32.3037C56.8037 31.0133 56.9913 29.7287 56.7275 28.8623C55.7881 25.7777 49.0236 28.7995 47.0144 30.177C43.7062 32.4449 39.5657 38.841 36.601 42.2026C34.19 43.9517 30.4997 45.24 26.1386 45.8919C24.2364 45.961 21.0468 45.9638 17.1751 45.7445" stroke="black" stroke-width="4" stroke-linecap="round"/>
</svg>
