<svg width="43" height="60" viewBox="0 0 43 60" fill="none" xmlns="http://www.w3.org/2000/svg">
<path d="M7.04798 33.4088C6.39998 33.5753 4.43803 34.8107 2.89156 37.0854C0.952796 39.9371 2.59332 44.9557 3.86825 46.8211C5.18099 48.7418 8.42831 49.3583 11.9325 49.3398C15.5587 49.3206 17.4347 45.0153 19.4028 41.2115C20.6409 38.8188 19.3964 36.4294 18.4656 35.2231C16.6167 32.827 13.8842 32.3141 11.6446 32.2719C11.0787 32.373 10.5321 32.5764 9.88428 32.8902C9.23649 33.2039 8.50417 33.6218 7.4694 34.0545" stroke="black" stroke-width="4" stroke-linecap="round"/>
<path d="M18.7895 34.5402C18.7895 33.1188 18.1619 27.8438 17.0583 24.1694C15.3682 18.5426 14.8826 15.5865 14.2483 13.0657C13.925 11.7808 13.9787 9.97661 14.1169 8.17168C14.3101 5.65052 17.2233 4.44831 19.789 3.0967C24.1198 0.815282 30.7762 2.67804 31.675 3.45845C32.6965 4.34535 32.4824 11.6982 32.2398 22.2728C32.0109 32.2454 29.9331 36.6845 29.3064 39.5318C28.6594 42.471 27.9995 47.3061 27.9675 54.7927C27.961 56.2977 28.4007 56.7945 28.8429 57.1775C29.7538 57.9666 31.4333 58.0626 33.1375 57.9726C35.4823 57.1694 37.6677 55.3777 39.1764 53.5615C39.5062 53.1217 39.8206 52.6627 40.1446 51.5442" stroke="black" stroke-width="4" stroke-linecap="round"/>
</svg>
