<svg width="68" height="53" viewBox="0 0 68 53" fill="none" xmlns="http://www.w3.org/2000/svg">
<path d="M2 39.3817C8.03734 39.3817 21.249 39.3289 22.8128 38.9592C23.3788 38.8254 23.1669 38.0627 22.8956 37.5004C21.7773 35.1821 18.9804 31.3096 17.3038 27.6606C16.2182 25.298 16.7326 17.3074 17.258 11.6357C17.497 9.05601 23.2254 6.45353 28.7831 3.55137C35.1469 0.228349 44.6776 3.08989 46.9552 4.33408C49.6852 5.82539 50.2228 10.8064 50.3955 20.8356C50.4917 26.4213 47.8718 29.9848 46.6426 32.3462C46.0876 33.4125 45.4498 34.5929 45.2219 35.7046C44.3545 39.9372 56.8888 36.9915 59.3074 37.4395C59.9374 37.5301 60.6101 37.5842 61.5236 37.6367C62.437 37.6893 63.5708 37.7386 64.7389 37.7894" stroke="black" stroke-width="4" stroke-linecap="round"/>
<path d="M2.24927 49.7364C2.31024 49.7364 2.37121 49.7364 10.5921 49.7364C18.8131 49.7364 35.1921 49.7364 43.9265 49.7851C54.4402 49.8436 57.0997 50.1843 61.3587 50.3763C62.2881 50.4462 62.8307 50.5373 63.4065 50.5846C63.9823 50.6318 64.5748 50.6325 65.2477 50.6934" stroke="black" stroke-width="4" stroke-linecap="round"/>
</svg>
