<svg width="43" height="59" viewBox="0 0 43 59" fill="none" xmlns="http://www.w3.org/2000/svg">
<path d="M2.00024 2.00018C2.66398 2.95644 7.39958 11.8291 10.6735 20.5402C11.3716 22.3975 11.2715 28.0307 10.874 37.3001C8.03293 50.0816 6.61741 52.8775 4.70207 54.9523C4.17998 55.4213 3.70043 55.796 3.20636 56.1821" stroke="black" stroke-width="4" stroke-linecap="round"/>
<path d="M30.0295 2.03964C30.0295 3.48566 29.839 7.51691 26.8285 17.3421C25.5163 21.6246 25.4851 26.2263 25.6353 31.2352C25.8943 39.8717 30.9824 46.1635 32.8152 48.7868C33.5697 49.8336 34.449 50.9299 35.5118 52.1591C36.0807 52.834 36.7096 53.613 37.8848 54.8327" stroke="black" stroke-width="4" stroke-linecap="round"/>
<path d="M2.6001 28.132C2.64737 28.132 2.69464 28.132 7.75108 28.132C12.8075 28.132 22.8717 28.132 29.198 28.1903C35.5242 28.2485 37.8075 28.365 40.1039 28.485" stroke="black" stroke-width="4" stroke-linecap="round"/>
</svg>
