<svg width="50" height="48" viewBox="0 0 50 48" fill="none" xmlns="http://www.w3.org/2000/svg">
<path d="M2.00076 45.454C1.95829 45.454 3.68468 43.2995 9.20807 36.9982C12.9045 32.7812 18.7322 26.7777 22.8995 22.709C32.1231 13.7034 35.0279 11.6286 37.2603 9.41322C40.4357 6.68952 42.3823 5.09282 43.9406 3.54713C44.3341 3.15047 44.7273 2.75382 44.9726 2.00055" stroke="black" stroke-width="4" stroke-linecap="round"/>
<path d="M28.6079 2.89319C35.1555 2.89319 47.9109 3.44398 47.4313 4.66145C46.0446 7.81755 45.6042 10.8779 45.374 13.9842C45.3184 15.3034 45.2635 17.3298 45.2071 19.4176" stroke="black" stroke-width="4" stroke-linecap="round"/>
<path d="M14.0349 15.4464C17.4895 18.6372 25.5098 26.159 27.5825 28.1935C28.0284 28.6382 28.414 29.0506 28.8991 29.5272C29.3841 30.0037 29.9568 30.5319 31.1199 31.7612" stroke="black" stroke-width="4" stroke-linecap="round"/>
</svg>
