<svg width="79" height="55" viewBox="0 0 79 55" fill="none" xmlns="http://www.w3.org/2000/svg">
<path d="M2.00024 5.49857C2.72975 5.37732 5.99926 5.09825 9.03356 5.34746C10.1882 5.44229 10.4361 6.2276 10.6879 6.91693C11.2115 8.34974 12.9837 17.5463 15.4777 30.5306C16.36 35.1243 16.4933 35.6614 16.6332 33.6367C17.0907 27.0171 18.5232 18.235 21.122 11.4357C22.7655 7.1356 25.0772 4.88273 27.1117 3.26274C28.516 2.14454 29.8722 1.87459 30.9831 2.04872C34.2292 2.55755 36.5951 14.1198 40.1058 24.8131C40.6718 26.5372 40.7065 27.0901 41.0329 25.9451C43.1732 18.4393 45.0565 14.4461 47.5733 11.1319C50.2912 7.55294 52.6939 5.8169 55.3643 4.71793C56.6091 4.20564 58.1902 4.3271 59.5622 4.57125C62.8298 5.15274 60.7259 22.0168 61.2974 30.8598C61.5981 35.5113 63.7235 38.1939 65.2234 39.8138C66.9363 41.6637 69.8777 42.5414 72.8111 43.8237C74.1906 44.4267 75.5155 44.4008 76.3131 44.2478C77.1116 44.0947 74.398 40.249 71.2896 36.5329C69.1552 33.9814 76.2615 45.5355 75.5727 46.4416C73.2282 47.727 71.0547 48.7471 69.3707 50.2115C69.0595 50.6659 68.8211 51.1653 68.5755 52.0992" stroke="black" stroke-width="4" stroke-linecap="round"/>
</svg>
