<svg width="73" height="53" viewBox="0 0 73 53" fill="none" xmlns="http://www.w3.org/2000/svg">
<path d="M2 3.52263C3.5611 3.46502 10.1375 4.16944 13.5193 5.16864C15.8784 5.86569 17.9179 8.62329 19.1476 9.88831C20.583 11.365 23.2184 13.0599 26.5203 14.7701C27.8035 15.4347 29.2761 15.7978 32.0671 16.0602C36.9876 16.5227 41.814 15.7473 44.8097 14.7676C49.2896 13.3025 53.079 9.13169 55.1425 7.46956C58.2827 4.94016 60.9613 3.32758 62.9883 2.60142C64.3413 2.36425 65.6271 2.1655 66.9482 2.0245C67.7507 1.97642 68.8213 1.97597 70.7285 2.24216" stroke="black" stroke-width="4" stroke-linecap="round"/>
<path d="M35.073 16.7916C34.6357 16.7358 33.06 16.9337 30.3863 18.3766C28.3259 19.4886 26.32 22.1986 24.7826 24.4022C23.7553 25.8747 23.2571 28.4915 23.0848 36.0229C23.0252 38.6306 24.0288 40.1415 25.0395 42.1398C26.2917 44.6155 29.2088 47.1341 30.4582 48.0486C32.3916 49.4639 38.0524 50.4146 46.0743 50.6515C48.8144 50.7325 53.4385 46.0004 56.7914 41.9159C59.0284 39.1908 59.2712 34.5304 59.3716 28.4983C59.4185 25.6761 57.8392 23.8973 56.2425 21.9283C54.5809 19.8791 51.9047 19.1544 49.3554 18.0981C47.128 17.5636 44.7581 17.1003 42.1151 16.6112C41.2782 16.5458 40.1093 16.5369 38.9049 16.5276" stroke="black" stroke-width="4" stroke-linecap="round"/>
</svg>
