<svg width="71" height="44" viewBox="0 0 71 44" fill="none" xmlns="http://www.w3.org/2000/svg">
<path d="M58.7729 39.997C58.8812 39.3373 61.3301 34.1717 64.0676 28.6472C66.2189 24.3056 65.6463 21.7106 65.4186 20.3379C65.3187 19.7354 64.7271 19.472 64.1597 19.312C63.5923 19.1519 62.9333 19.141 62.3475 19.309C61.7617 19.477 61.2692 19.8243 60.9586 20.2838C59.7254 22.108 60.8281 24.6265 61.8407 28.5476C63.6449 34.719 64.6726 36.8949 66.691 40.2419C67.2075 40.953 67.6165 41.3236 68.1769 41.7055" stroke="black" stroke-width="4" stroke-linecap="round"/>
<path d="M2.00049 4.09369C2.66362 3.91217 5.12801 3.5552 8.6776 3.6022C12 3.64619 10.8079 11.5767 11.666 15.8579C12.4227 19.6338 13.0101 22.2979 13.2949 24.5439C13.5774 26.7709 14.0166 29.3381 14.3806 31.9878C14.678 34.1531 16.2064 15.1338 17.7585 8.96807C18.4451 6.24045 20.6601 4.58934 22.7569 3.95093C25.0771 3.24449 27.2904 5.5358 28.7565 7.19754C30.5034 9.17738 31.5951 13.5121 35.2347 24.1199C36.7963 28.6713 36.8694 30.7235 36.9949 31.2947C38.6002 38.6016 37.53 9.87995 38.4875 7.47074C39.3917 5.19559 41.1771 3.43155 43.5495 2.53438C47.1382 1.17723 52.4525 2.69028 54.3849 3.91016C56.2724 5.10167 56.9721 10.181 57.6632 13.6384C58.0938 15.7923 58.4706 18.0173 59.095 20.3126C59.2885 20.9452 59.5132 21.6542 59.7074 22.2757C59.9016 22.8972 60.0584 23.4096 60.3571 24.0912" stroke="black" stroke-width="4" stroke-linecap="round"/>
</svg>
